<?xml version="1.0" encoding="utf-8"?>
<!-- Generator: Adobe Illustrator 26.5.2, SVG Export Plug-In . SVG Version: 6.00 Build 0)  -->
<svg version="1.1" id="Layer_1" xmlns="http://www.w3.org/2000/svg" xmlns:xlink="http://www.w3.org/1999/xlink" x="0px" y="0px"
	 viewBox="0 0 36 36" style="enable-background:new 0 0 36 36;" xml:space="preserve">
<style type="text/css">
	.st0{display:none;}
	.st1{display:inline;fill-rule:evenodd;clip-rule:evenodd;fill:#878787;stroke:#464646;}
	.st2{display:inline;fill-rule:evenodd;clip-rule:evenodd;fill:#C3C3C3;stroke:#464646;}
	.st3{fill-rule:evenodd;clip-rule:evenodd;fill:#878787;stroke:#FFFFFF;stroke-width:2;stroke-linecap:round;}
	.st4{fill-rule:evenodd;clip-rule:evenodd;fill:#FFFFFF;}
	.st5{fill:#464646;}
	.st6{display:none;fill-rule:evenodd;clip-rule:evenodd;fill:#707070;stroke:#6EDF94;stroke-width:2;stroke-linecap:round;}
</style>
<g class="st0">
	<circle class="st1" cx="8.3" cy="27.4" r="6"/>
</g>
<g class="st0">
	<circle class="st2" cx="15" cy="23.3" r="8"/>
</g>
<path class="st3" d="M20.5,33h-10c-2.8,0-5-2.2-5-5V8c0-2.8,2.2-5,5-5h10c2.8,0,5,2.2,5,5v20C25.5,30.8,23.3,33,20.5,33z"/>
<g>
	<circle class="st4" cx="23.7" cy="18" r="9.5"/>
	<path class="st5" d="M23.7,27c-5,0-9-4-9-9s4-9,9-9s9,4,9,9S28.7,27,23.7,27 M23.7,28c5.5,0,10-4.5,10-10s-4.5-10-10-10
		s-10,4.5-10,10S18.2,28,23.7,28L23.7,28z"/>
</g>
<path class="st6" d="M-16.9,5.2h3c3.3,0,6,2.7,6,6v12c0,3.3-2.7,6-6,6h-3c-3.3,0-6-2.7-6-6v-12C-22.9,7.9-20.2,5.2-16.9,5.2z"/>
</svg>
