<?xml version="1.0" encoding="utf-8"?>
<!-- Generator: Adobe Illustrator 26.5.2, SVG Export Plug-In . SVG Version: 6.00 Build 0)  -->
<svg version="1.1" id="Layer_1" xmlns="http://www.w3.org/2000/svg" xmlns:xlink="http://www.w3.org/1999/xlink" x="0px" y="0px"
	 viewBox="0 0 36 36" style="enable-background:new 0 0 36 36;" xml:space="preserve">
<style type="text/css">
	.st0{fill-rule:evenodd;clip-rule:evenodd;fill:#808080;stroke:#464646;}
	.st1{fill-rule:evenodd;clip-rule:evenodd;fill:#C0C0C0;stroke:#464646;}
	.st2{fill-rule:evenodd;clip-rule:evenodd;fill:#202020;}
	.st3{fill:#FFFFFF;}
</style>
<g>
	<circle class="st0" cx="8.3" cy="27.4" r="6"/>
</g>
<g>
	<circle class="st1" cx="15" cy="23.3" r="8"/>
</g>
<g>
	<g>
		<path d="M22.7,10c4.7,0,8.5,3.8,8.5,8.5S27.4,27,22.7,27s-8.5-3.8-8.5-8.5S18,10,22.7,10 M22.7,8.5c-5.5,0-10,4.5-10,10
			s4.5,10,10,10s10-4.5,10-10S28.2,8.5,22.7,8.5L22.7,8.5z"/>
	</g>
</g>
<g>
	<g>
		<circle class="st2" cx="23.7" cy="18" r="9.2"/>
		<path class="st3" d="M23.7,9.5c4.7,0,8.5,3.8,8.5,8.5s-3.8,8.5-8.5,8.5s-8.5-3.8-8.5-8.5S19,9.5,23.7,9.5 M23.7,8
			c-5.5,0-10,4.5-10,10s4.5,10,10,10s10-4.5,10-10S29.2,8,23.7,8L23.7,8z"/>
	</g>
</g>
</svg>
