<?xml version="1.0" encoding="utf-8"?>
<!-- Generator: Adobe Illustrator 26.5.2, SVG Export Plug-In . SVG Version: 6.00 Build 0)  -->
<svg version="1.1" id="Layer_1" xmlns="http://www.w3.org/2000/svg" xmlns:xlink="http://www.w3.org/1999/xlink" x="0px" y="0px"
	 viewBox="0 0 36 36" style="enable-background:new 0 0 36 36;" xml:space="preserve">
<style type="text/css">
	.st0{fill-rule:evenodd;clip-rule:evenodd;fill:#FFFFFF;}
	.st1{fill:#464646;}
	.st2{fill-rule:evenodd;clip-rule:evenodd;fill:#202020;stroke:#A0A0A0;stroke-width:1.5;}
</style>
<g>
	<path class="st0" d="M14.8,34.5c-3.1,0-5.5-2.6-5.5-5.8V7.3c0-3.3,2.4-5.8,5.5-5.8s5.5,2.6,5.5,5.8v21.3
		C20.2,31.9,17.8,34.5,14.8,34.5z"/>
	<path class="st1" d="M14.8,2c2.8,0,5,2.3,5,5.3v21.3c0,3-2.2,5.3-5,5.3s-5-2.3-5-5.3V7.3C9.8,4.3,11.9,2,14.8,2 M14.8,1
		c-3.4,0-6,2.8-6,6.3v21.3c0,3.6,2.6,6.3,6,6.3s6-2.8,6-6.3V7.3C20.8,3.8,18.1,1,14.8,1L14.8,1z"/>
</g>
<circle class="st2" cx="20.2" cy="10" r="6"/>
<circle class="st2" cx="20.2" cy="18" r="6"/>
<circle class="st2" cx="20.2" cy="26" r="6"/>
</svg>
