<svg width="68" height="64" viewBox="0 0 68 64" fill="none" xmlns="http://www.w3.org/2000/svg">
<path opacity="0.5" d="M15 3L33.4372 13.2114" stroke="url(#paint0_linear_19342_15391)"/>
<path opacity="0.5" d="M1 31.1562L19.4372 41.3676" stroke="url(#paint1_linear_19342_15391)"/>
<path opacity="0.5" d="M4 24L22.4372 34.2114" stroke="url(#paint2_linear_19342_15391)"/>
<path opacity="0.5" d="M47.195 57.805C47.4365 57.9388 47.7408 57.8514 47.8746 57.6099C48.0084 57.3683 47.921 57.064 47.6795 56.9302L47.195 57.805ZM47.6795 56.9302L29.2422 46.7189L28.7578 47.5936L47.195 57.805L47.6795 56.9302Z" fill="url(#paint3_linear_19342_15391)"/>
<path opacity="0.5" d="M38 16.2285L56.4372 26.4399" stroke="url(#paint4_linear_19342_15391)" stroke-linecap="round"/>
<path d="M35.3332 38.059L17 27.9053V40.5975L35.3332 50.7512V38.059Z" fill="url(#paint5_linear_19342_15391)"/>
<path d="M49.9986 40.5975L35.332 50.7512V38.059L49.9986 27.9053V40.5975Z" fill="url(#paint6_linear_19342_15391)"/>
<path d="M31.6665 17.75L17 27.9038L35.3332 38.0575L49.9997 27.9038L31.6665 17.75Z" fill="url(#paint7_linear_19342_15391)"/>
<path d="M44.7778 16.1756L32 9.09863V17.9448L44.7778 25.0217V16.1756Z" fill="url(#paint8_linear_19342_15391)"/>
<path d="M54.9957 17.9448L44.7734 25.0217V16.1756L54.9957 9.09863V17.9448Z" fill="url(#paint9_linear_19342_15391)"/>
<path d="M42.2222 2.01953L32 9.09646L44.7778 16.1734L55 9.09646L42.2222 2.01953Z" fill="url(#paint10_linear_19342_15391)"/>
<path d="M25.3328 56.4832L17 51.8682V57.637L25.3328 62.2521V56.4832Z" fill="url(#paint11_linear_19342_15391)"/>
<path d="M32.0022 57.637L25.3359 62.2521V56.4832L32.0022 51.8682V57.637Z" fill="url(#paint12_linear_19342_15391)"/>
<path d="M23.6662 47.25L17 51.8651L25.3328 56.4801L31.999 51.8651L23.6662 47.25Z" fill="url(#paint13_linear_19342_15391)"/>
<path d="M17 21.0092L7 15.4707V22.3938L17 27.9322V21.0092Z" fill="url(#paint14_linear_19342_15391)"/>
<path d="M25 22.3938L17 27.9322V21.0092L25 15.4707V22.3938Z" fill="url(#paint15_linear_19342_15391)"/>
<path d="M15 9.93066L7 15.4691L17 21.0076L25 15.4691L15 9.93066Z" fill="url(#paint16_linear_19342_15391)"/>
<path d="M56.1111 31.7694L50 28.3848V32.6155L56.1111 36.0002V31.7694Z" fill="url(#paint17_linear_19342_15391)"/>
<path d="M60.9983 32.6155L56.1094 36.0002V31.7694L60.9983 28.3848V32.6155Z" fill="url(#paint18_linear_19342_15391)"/>
<path d="M54.8889 25L50 28.3846L56.1111 31.7692L61 28.3846L54.8889 25Z" fill="url(#paint19_linear_19342_15391)"/>
<path d="M62.9303 39H41.0697C39.3744 39 38 40.4109 38 42.1514V58.8486C38 60.5891 39.3744 62 41.0697 62H62.9303C64.6256 62 66 60.5891 66 58.8486V42.1514C66 40.4109 64.6256 39 62.9303 39Z" fill="url(#paint20_linear_19342_15391)"/>
<path opacity="0.75" d="M59.9663 42H50.0337C48.9105 42 48 42.8186 48 43.8283V52.1717C48 53.1814 48.9105 54 50.0337 54H59.9663C61.0895 54 62 53.1814 62 52.1717V43.8283C62 42.8186 61.0895 42 59.9663 42Z" fill="url(#paint21_linear_19342_15391)"/>
<path opacity="0.3" d="M54.9663 46H45.0337C43.9105 46 43 46.8868 43 47.9806V57.0194C43 58.1132 43.9105 59 45.0337 59H54.9663C56.0895 59 57 58.1132 57 57.0194V47.9806C57 46.8868 56.0895 46 54.9663 46Z" fill="black"/>
<path d="M53.9663 47H44.0337C42.9105 47 42 47.8868 42 48.9806V58.0194C42 59.1132 42.9105 60 44.0337 60H53.9663C55.0895 60 56 59.1132 56 58.0194V48.9806C56 47.8868 55.0895 47 53.9663 47Z" fill="url(#paint22_linear_19342_15391)"/>
<defs>
<linearGradient id="paint0_linear_19342_15391" x1="15.1875" y1="3.25" x2="30.6875" y2="11.75" gradientUnits="userSpaceOnUse">
<stop stop-color="white" stop-opacity="0"/>
<stop offset="1" stop-color="white"/>
</linearGradient>
<linearGradient id="paint1_linear_19342_15391" x1="1.1875" y1="31.4062" x2="16.6875" y2="39.9062" gradientUnits="userSpaceOnUse">
<stop stop-color="white" stop-opacity="0"/>
<stop offset="1" stop-color="white"/>
</linearGradient>
<linearGradient id="paint2_linear_19342_15391" x1="4.1875" y1="24.25" x2="19.6875" y2="32.75" gradientUnits="userSpaceOnUse">
<stop stop-color="white" stop-opacity="0"/>
<stop offset="1" stop-color="white"/>
</linearGradient>
<linearGradient id="paint3_linear_19342_15391" x1="29.1875" y1="47.4062" x2="44.6875" y2="55.9062" gradientUnits="userSpaceOnUse">
<stop stop-color="white" stop-opacity="0"/>
<stop offset="1" stop-color="white"/>
</linearGradient>
<linearGradient id="paint4_linear_19342_15391" x1="38.1875" y1="16.4785" x2="53.6875" y2="24.9785" gradientUnits="userSpaceOnUse">
<stop stop-color="white" stop-opacity="0"/>
<stop offset="1" stop-color="white"/>
</linearGradient>
<linearGradient id="paint5_linear_19342_15391" x1="17" y1="34.7826" x2="25.1566" y2="50.0042" gradientUnits="userSpaceOnUse">
<stop stop-color="#787878"/>
<stop offset="1" stop-color="#9B9B9B"/>
</linearGradient>
<linearGradient id="paint6_linear_19342_15391" x1="39.5479" y1="32.0514" x2="51.5286" y2="38.1627" gradientUnits="userSpaceOnUse">
<stop stop-color="#666666"/>
<stop offset="1" stop-color="#333333"/>
</linearGradient>
<linearGradient id="paint7_linear_19342_15391" x1="24.2011" y1="23.2604" x2="32.8721" y2="38.6719" gradientUnits="userSpaceOnUse">
<stop stop-color="#C0C0C0"/>
<stop offset="1" stop-color="#F2F2F2"/>
</linearGradient>
<linearGradient id="paint8_linear_19342_15391" x1="32" y1="13.8919" x2="37.685" y2="24.5011" gradientUnits="userSpaceOnUse">
<stop stop-color="#787878"/>
<stop offset="1" stop-color="#9B9B9B"/>
</linearGradient>
<linearGradient id="paint9_linear_19342_15391" x1="47.7118" y1="11.9884" x2="56.062" y2="16.2479" gradientUnits="userSpaceOnUse">
<stop stop-color="#666666"/>
<stop offset="1" stop-color="#333333"/>
</linearGradient>
<linearGradient id="paint10_linear_19342_15391" x1="37.019" y1="5.86018" x2="43.0625" y2="16.6016" gradientUnits="userSpaceOnUse">
<stop stop-color="#C0C0C0"/>
<stop offset="1" stop-color="#F2F2F2"/>
</linearGradient>
<linearGradient id="paint11_linear_19342_15391" x1="17" y1="54.994" x2="20.7073" y2="61.9125" gradientUnits="userSpaceOnUse">
<stop stop-color="#787878"/>
<stop offset="1" stop-color="#9B9B9B"/>
</linearGradient>
<linearGradient id="paint12_linear_19342_15391" x1="27.2521" y1="53.7526" x2="32.6976" y2="56.5304" gradientUnits="userSpaceOnUse">
<stop stop-color="#666666"/>
<stop offset="1" stop-color="#333333"/>
</linearGradient>
<linearGradient id="paint13_linear_19342_15391" x1="20.2731" y1="49.7546" x2="24.2142" y2="56.7594" gradientUnits="userSpaceOnUse">
<stop stop-color="#C0C0C0"/>
<stop offset="1" stop-color="#F2F2F2"/>
</linearGradient>
<linearGradient id="paint14_linear_19342_15391" x1="7" y1="19.222" x2="11.4491" y2="27.5248" gradientUnits="userSpaceOnUse">
<stop stop-color="#787878"/>
<stop offset="1" stop-color="#9B9B9B"/>
</linearGradient>
<linearGradient id="paint15_linear_19342_15391" x1="19.2996" y1="17.7322" x2="25.8346" y2="21.0657" gradientUnits="userSpaceOnUse">
<stop stop-color="#666666"/>
<stop offset="1" stop-color="#333333"/>
</linearGradient>
<linearGradient id="paint16_linear_19342_15391" x1="10.9279" y1="12.9364" x2="15.6576" y2="21.3427" gradientUnits="userSpaceOnUse">
<stop stop-color="#C0C0C0"/>
<stop offset="1" stop-color="#F2F2F2"/>
</linearGradient>
<linearGradient id="paint17_linear_19342_15391" x1="50" y1="30.6772" x2="52.7189" y2="35.7511" gradientUnits="userSpaceOnUse">
<stop stop-color="#787878"/>
<stop offset="1" stop-color="#9B9B9B"/>
</linearGradient>
<linearGradient id="paint18_linear_19342_15391" x1="57.5147" y1="29.7668" x2="61.5083" y2="31.804" gradientUnits="userSpaceOnUse">
<stop stop-color="#666666"/>
<stop offset="1" stop-color="#333333"/>
</linearGradient>
<linearGradient id="paint19_linear_19342_15391" x1="52.4004" y1="26.8368" x2="55.2908" y2="31.974" gradientUnits="userSpaceOnUse">
<stop stop-color="#C0C0C0"/>
<stop offset="1" stop-color="#F2F2F2"/>
</linearGradient>
<linearGradient id="paint20_linear_19342_15391" x1="52.1006" y1="61.5144" x2="51.8779" y2="38.7005" gradientUnits="userSpaceOnUse">
<stop stop-color="#333333"/>
<stop offset="1" stop-color="#4D4D4D"/>
</linearGradient>
<linearGradient id="paint21_linear_19342_15391" x1="48" y1="48" x2="61.9888" y2="48" gradientUnits="userSpaceOnUse">
<stop stop-color="#E6E6E6"/>
<stop offset="1" stop-color="#999999"/>
</linearGradient>
<linearGradient id="paint22_linear_19342_15391" x1="42" y1="53.5" x2="56" y2="53.5" gradientUnits="userSpaceOnUse">
<stop stop-color="#E6E6E6"/>
<stop offset="1" stop-color="#B3B3B3"/>
</linearGradient>
</defs>
</svg>
