<svg width="135" height="128" viewBox="0 0 135 128" fill="none" xmlns="http://www.w3.org/2000/svg">
<path opacity="0.5" d="M29 6L65.8744 26.4228" stroke="url(#paint0_linear_18855_19509)" stroke-width="2"/>
<path opacity="0.5" d="M1 62.3037L37.8744 82.7265" stroke="url(#paint1_linear_18855_19509)" stroke-width="2"/>
<path opacity="0.5" d="M7 48L43.8744 68.4228" stroke="url(#paint2_linear_18855_19509)" stroke-width="2"/>
<path opacity="0.5" d="M93.3899 115.601C93.873 115.869 94.4816 115.694 94.7492 115.211C95.0168 114.728 94.842 114.119 94.3589 113.852L93.3899 115.601ZM94.3589 113.852L57.4845 93.4289L56.5155 95.1785L93.3899 115.601L94.3589 113.852Z" fill="url(#paint3_linear_18855_19509)"/>
<path opacity="0.5" d="M75 32.4639L111.874 52.8866" stroke="url(#paint4_linear_18855_19509)" stroke-width="2" stroke-linecap="round"/>
<path d="M87.9579 31.9644L62.4023 17.8105V35.5029L87.9579 49.6567V31.9644Z" fill="url(#paint5_linear_18855_19509)"/>
<path d="M108.394 35.5029L87.9492 49.6567V31.9644L108.394 17.8105V35.5029Z" fill="url(#paint6_linear_18855_19509)"/>
<path d="M82.8468 3.65234L62.4023 17.8062L87.9579 31.9601L108.402 17.8062L82.8468 3.65234Z" fill="url(#paint7_linear_18855_19509)"/>
<path d="M49.7211 112.889L33.125 103.697V115.187L49.7211 124.379V112.889Z" fill="url(#paint8_linear_18855_19509)"/>
<path d="M63.0034 115.187L49.7266 124.379V112.889L63.0034 103.697V115.187Z" fill="url(#paint9_linear_18855_19509)"/>
<path d="M46.4019 94.5L33.125 103.692L49.7211 112.883L62.998 103.692L46.4019 94.5Z" fill="url(#paint10_linear_18855_19509)"/>
<path d="M33 41.9607L13 30.8838V44.7299L33 55.8069V41.9607Z" fill="url(#paint11_linear_18855_19509)"/>
<path d="M49 44.7299L33 55.8069V41.9607L49 30.8838V44.7299Z" fill="url(#paint12_linear_18855_19509)"/>
<path d="M29 19.8037L13 30.8806L33 41.9576L49 30.8806L29 19.8037Z" fill="url(#paint13_linear_18855_19509)"/>
<path d="M108.553 106.311L83 92.1582V109.849L108.553 124.002V106.311Z" fill="url(#paint14_linear_18855_19509)"/>
<path d="M128.982 109.849L108.539 124.002V106.311L128.982 92.1582V109.849Z" fill="url(#paint15_linear_18855_19509)"/>
<path d="M103.443 78L83 92.1527L108.553 106.305L128.996 92.1527L103.443 78Z" fill="url(#paint16_linear_18855_19509)"/>
<path d="M111.222 63.5388L99 56.7695V65.2311L111.222 72.0003V63.5388Z" fill="url(#paint17_linear_18855_19509)"/>
<path d="M120.997 65.2311L111.219 72.0003V63.5388L120.997 56.7695V65.2311Z" fill="url(#paint18_linear_18855_19509)"/>
<path d="M108.778 50L99 56.7692L111.222 63.5385L121 56.7692L108.778 50Z" fill="url(#paint19_linear_18855_19509)"/>
<path d="M69.6663 76.1171L33 55.8096V81.194L69.6663 101.501V76.1171Z" fill="url(#paint20_linear_18855_19509)"/>
<path d="M98.9971 81.194L69.6641 101.501V76.1171L98.9971 55.8096V81.194Z" fill="url(#paint21_linear_18855_19509)"/>
<path d="M62.3331 35.5L33 55.8075L69.6663 76.115L98.9994 55.8075L62.3331 35.5Z" fill="url(#paint22_linear_18855_19509)"/>
<defs>
<linearGradient id="paint0_linear_18855_19509" x1="29.375" y1="6.5" x2="60.375" y2="23.5" gradientUnits="userSpaceOnUse">
<stop stop-color="white" stop-opacity="0"/>
<stop offset="1" stop-color="white"/>
</linearGradient>
<linearGradient id="paint1_linear_18855_19509" x1="1.375" y1="62.8037" x2="32.375" y2="79.8037" gradientUnits="userSpaceOnUse">
<stop stop-color="white" stop-opacity="0"/>
<stop offset="1" stop-color="white"/>
</linearGradient>
<linearGradient id="paint2_linear_18855_19509" x1="7.375" y1="48.5" x2="38.375" y2="65.5" gradientUnits="userSpaceOnUse">
<stop stop-color="white" stop-opacity="0"/>
<stop offset="1" stop-color="white"/>
</linearGradient>
<linearGradient id="paint3_linear_18855_19509" x1="57.375" y1="94.8037" x2="88.375" y2="111.804" gradientUnits="userSpaceOnUse">
<stop stop-color="white" stop-opacity="0"/>
<stop offset="1" stop-color="white"/>
</linearGradient>
<linearGradient id="paint4_linear_18855_19509" x1="75.375" y1="32.9639" x2="106.375" y2="49.9639" gradientUnits="userSpaceOnUse">
<stop stop-color="white" stop-opacity="0"/>
<stop offset="1" stop-color="white"/>
</linearGradient>
<linearGradient id="paint5_linear_18855_19509" x1="62.4023" y1="27.3972" x2="73.7723" y2="48.6154" gradientUnits="userSpaceOnUse">
<stop stop-color="#787878"/>
<stop offset="1" stop-color="#9B9B9B"/>
</linearGradient>
<linearGradient id="paint6_linear_18855_19509" x1="93.826" y1="23.59" x2="110.526" y2="32.109" gradientUnits="userSpaceOnUse">
<stop stop-color="#666666"/>
<stop offset="1" stop-color="#333333"/>
</linearGradient>
<linearGradient id="paint7_linear_18855_19509" x1="72.4404" y1="11.3336" x2="84.5274" y2="32.8165" gradientUnits="userSpaceOnUse">
<stop stop-color="#C0C0C0"/>
<stop offset="1" stop-color="#F2F2F2"/>
</linearGradient>
<linearGradient id="paint8_linear_18855_19509" x1="33.125" y1="109.923" x2="40.5088" y2="123.702" gradientUnits="userSpaceOnUse">
<stop stop-color="#787878"/>
<stop offset="1" stop-color="#9B9B9B"/>
</linearGradient>
<linearGradient id="paint9_linear_18855_19509" x1="53.543" y1="107.451" x2="64.3885" y2="112.983" gradientUnits="userSpaceOnUse">
<stop stop-color="#666666"/>
<stop offset="1" stop-color="#333333"/>
</linearGradient>
<linearGradient id="paint10_linear_18855_19509" x1="41.2788" y1="103.021" x2="71.5627" y2="111.697" gradientUnits="userSpaceOnUse">
<stop stop-color="#C0C0C0"/>
<stop offset="1" stop-color="#F2F2F2"/>
</linearGradient>
<linearGradient id="paint11_linear_18855_19509" x1="13" y1="38.3863" x2="21.8982" y2="54.9919" gradientUnits="userSpaceOnUse">
<stop stop-color="#787878"/>
<stop offset="1" stop-color="#9B9B9B"/>
</linearGradient>
<linearGradient id="paint12_linear_18855_19509" x1="37.5992" y1="35.4068" x2="50.6691" y2="42.0739" gradientUnits="userSpaceOnUse">
<stop stop-color="#666666"/>
<stop offset="1" stop-color="#333333"/>
</linearGradient>
<linearGradient id="paint13_linear_18855_19509" x1="20.8559" y1="25.8152" x2="30.3152" y2="42.6278" gradientUnits="userSpaceOnUse">
<stop stop-color="#C0C0C0"/>
<stop offset="1" stop-color="#F2F2F2"/>
</linearGradient>
<linearGradient id="paint14_linear_18855_19509" x1="83" y1="101.744" x2="94.369" y2="122.96" gradientUnits="userSpaceOnUse">
<stop stop-color="#787878"/>
<stop offset="1" stop-color="#9B9B9B"/>
</linearGradient>
<linearGradient id="paint15_linear_18855_19509" x1="114.415" y1="97.9372" x2="131.114" y2="106.455" gradientUnits="userSpaceOnUse">
<stop stop-color="#666666"/>
<stop offset="1" stop-color="#333333"/>
</linearGradient>
<linearGradient id="paint16_linear_18855_19509" x1="93.0372" y1="85.6806" x2="105.123" y2="107.162" gradientUnits="userSpaceOnUse">
<stop stop-color="#C0C0C0"/>
<stop offset="1" stop-color="#F2F2F2"/>
</linearGradient>
<linearGradient id="paint17_linear_18855_19509" x1="99" y1="61.3544" x2="104.438" y2="71.5023" gradientUnits="userSpaceOnUse">
<stop stop-color="#787878"/>
<stop offset="1" stop-color="#9B9B9B"/>
</linearGradient>
<linearGradient id="paint18_linear_18855_19509" x1="114.029" y1="59.5336" x2="122.017" y2="63.6079" gradientUnits="userSpaceOnUse">
<stop stop-color="#666666"/>
<stop offset="1" stop-color="#333333"/>
</linearGradient>
<linearGradient id="paint19_linear_18855_19509" x1="103.801" y1="53.6737" x2="109.582" y2="63.948" gradientUnits="userSpaceOnUse">
<stop stop-color="#C0C0C0"/>
<stop offset="1" stop-color="#F2F2F2"/>
</linearGradient>
<linearGradient id="paint20_linear_18855_19509" x1="33" y1="69.5641" x2="49.3132" y2="100.007" gradientUnits="userSpaceOnUse">
<stop stop-color="#787878"/>
<stop offset="1" stop-color="#9B9B9B"/>
</linearGradient>
<linearGradient id="paint21_linear_18855_19509" x1="78.0958" y1="64.1018" x2="102.057" y2="76.3245" gradientUnits="userSpaceOnUse">
<stop stop-color="#666666"/>
<stop offset="1" stop-color="#333333"/>
</linearGradient>
<linearGradient id="paint22_linear_18855_19509" x1="47.4023" y1="46.5209" x2="64.7443" y2="77.3437" gradientUnits="userSpaceOnUse">
<stop stop-color="#C0C0C0"/>
<stop offset="1" stop-color="#F2F2F2"/>
</linearGradient>
</defs>
</svg>
