<svg width="16" height="16" viewBox="0 0 16 16" fill="none" xmlns="http://www.w3.org/2000/svg">
<path opacity="0.5" d="M8 10.0651L3 7.2959V10.2314L8 13.0006V10.0651Z" fill="white"/>
<path d="M7 4L3 6.76923L8 9.53846V6H10.6111L7 4Z" fill="white"/>
<path opacity="0.5" d="M10.3333 4.1401L7 2.29395V3.71646L10.3333 5.56261V4.1401Z" fill="white"/>
<path opacity="0.5" d="M12.9987 3.71657L10.332 5.56273V4.14303L12.9987 2.29688V3.71657Z" fill="white"/>
<path d="M9.66667 0L7 1.84615L10.3333 3.69231L13 1.84615L9.66667 0Z" fill="white"/>
<path opacity="0.5" d="M5.22222 14.7952L3 13.5645V14.7701L5.22222 16.0009V14.7952Z" fill="white"/>
<path opacity="0.5" d="M7.00043 14.7697L5.22266 16.0005V14.803L7.00043 13.5723V14.7697Z" fill="white"/>
<path d="M4.77778 12L3 13.2308L5.22222 14.4615L7 13.2308L4.77778 12Z" fill="white"/>
<path opacity="0.5" d="M2.77778 5.09608L0 3.55762V5.10897L2.77778 6.64743V5.09608Z" fill="white"/>
<path opacity="0.5" d="M4.99957 5.1082L2.77734 6.64666V5.08729L4.99957 3.54883V5.1082Z" fill="white"/>
<path d="M2.22222 1.64648L0 3.18495L2.77778 4.72341L5 3.18495L2.22222 1.64648Z" fill="white"/>
<path d="M13 7V10H16L13 7Z" fill="white"/>
<path d="M12 11V7H9V16H16V11H12Z" fill="white"/>
</svg>
