<svg width="16" height="16" viewBox="0 0 16 16" fill="none" xmlns="http://www.w3.org/2000/svg">
<path opacity="0.5" d="M7 10.5C7 9.96484 7.25975 9.65514 7.25975 9.65514L3 7.2959V10.2314L7 12.4468C7 12.4468 7 11 7 10.5Z" fill="white"/>
<path opacity="0.5" d="M9.55469 8.99715L12.0008 7.30371V8.99715H9.55469Z" fill="white"/>
<path d="M7 4L3 6.76923L7.58902 9.31084C7.77991 9.11995 8.17188 9 8.5 9L8.77545 9.00161L12 6.76923L7 4Z" fill="white"/>
<path opacity="0.5" d="M10.3333 4.1401L7 2.29395V3.71646L10.3333 5.56261V4.1401Z" fill="white"/>
<path opacity="0.5" d="M12.9987 3.71657L10.332 5.56273V4.14303L12.9987 2.29688V3.71657Z" fill="white"/>
<path d="M9.66667 0L7 1.84615L10.3333 3.69231L13 1.84615L9.66667 0Z" fill="white"/>
<path opacity="0.5" d="M5.22222 14.7952L3 13.5645V14.7701L5.22222 16.0009V14.7952Z" fill="white"/>
<path opacity="0.5" d="M7.00043 14.7697L5.22266 16.0005V14.803L7.00043 13.5723V14.7697Z" fill="white"/>
<path d="M4.77778 12L3 13.2308L5.22222 14.4615L7 13.2308L4.77778 12Z" fill="white"/>
<path opacity="0.5" d="M2.77778 5.09608L0 3.55762V5.10897L2.77778 6.64743V5.09608Z" fill="white"/>
<path opacity="0.5" d="M4.99957 5.1082L2.77734 6.64666V5.08729L4.99957 3.54883V5.1082Z" fill="white"/>
<path d="M2.22222 1.64648L0 3.18495L2.77778 4.72341L5 3.18495L2.22222 1.64648Z" fill="white"/>
<path opacity="0.5" fill-rule="evenodd" clip-rule="evenodd" d="M8 12H16V15C16 15.5523 15.5523 16 15 16H9C8.44772 16 8 15.5523 8 15V12ZM11 14C11 14.5523 10.5523 15 10 15C9.44772 15 9 14.5523 9 14C9 13.4477 9.44772 13 10 13C10.5523 13 11 13.4477 11 14ZM14 15C14.5523 15 15 14.5523 15 14C15 13.4477 14.5523 13 14 13C13.4477 13 13 13.4477 13 14C13 14.5523 13.4477 15 14 15Z" fill="white"/>
<path d="M8 11C8 10.4477 8.44772 10 9 10H15C15.5523 10 16 10.4477 16 11V12H8V11Z" fill="white"/>
</svg>
