<?xml version="1.0" encoding="utf-8"?>
<!-- Generator: Adobe Illustrator 26.5.2, SVG Export Plug-In . SVG Version: 6.00 Build 0)  -->
<svg version="1.1" id="Layer_1" xmlns="http://www.w3.org/2000/svg" xmlns:xlink="http://www.w3.org/1999/xlink" x="0px" y="0px"
	 viewBox="0 0 36 36" style="enable-background:new 0 0 36 36;" xml:space="preserve">
<style type="text/css">
	.st0{fill-rule:evenodd;clip-rule:evenodd;fill:#FFFFFF;}
	.st1{fill:#464646;}
	.st2{fill-rule:evenodd;clip-rule:evenodd;fill:#FFFFFF;stroke:#464646;}
</style>
<g>
	<path class="st0" d="M21.2,34.5c-3.1,0-5.5-2.6-5.5-5.8V7.3c0-3.3,2.4-5.8,5.5-5.8s5.5,2.6,5.5,5.8v21.3
		C26.8,31.9,24.3,34.5,21.2,34.5z"/>
	<path class="st1" d="M21.2,2c2.8,0,5,2.3,5,5.3v21.3c0,3-2.2,5.3-5,5.3s-5-2.3-5-5.3V7.3C16.2,4.3,18.5,2,21.2,2 M21.2,1
		c-3.4,0-6,2.8-6,6.3v21.3c0,3.6,2.6,6.3,6,6.3s6-2.8,6-6.3V7.3C27.2,3.8,24.6,1,21.2,1L21.2,1z"/>
</g>
<circle class="st2" cx="15.8" cy="10" r="6"/>
<circle class="st2" cx="15.8" cy="18" r="6"/>
<circle class="st2" cx="15.8" cy="26" r="6"/>
</svg>
