<?xml version="1.0" encoding="utf-8"?>
<!-- Generator: Adobe Illustrator 26.5.2, SVG Export Plug-In . SVG Version: 6.00 Build 0)  -->
<svg version="1.1" id="Layer_1" xmlns="http://www.w3.org/2000/svg" xmlns:xlink="http://www.w3.org/1999/xlink" x="0px" y="0px"
	 viewBox="0 0 36 36" style="enable-background:new 0 0 36 36;" xml:space="preserve">
<style type="text/css">
	.st0{fill-rule:evenodd;clip-rule:evenodd;fill:#232323;}
	.st1{fill:#FFFFFF;}
	.st2{fill-rule:evenodd;clip-rule:evenodd;fill:#C8C8C8;stroke:#464646;stroke-linecap:round;}
</style>
<g>
	<path class="st0" d="M8,18c-2.5,0-4.5-2-4.5-4.5S5.5,9,8,9h20c2.5,0,4.5,2,4.5,4.5S30.5,18,28,18H8z"/>
	<path class="st1" d="M28,9.5c2.2,0,4,1.8,4,4s-1.8,4-4,4H8c-2.2,0-4-1.8-4-4s1.8-4,4-4H28 M28,8.5H8c-2.8,0-5,2.2-5,5s2.2,5,5,5h20
		c2.8,0,5-2.2,5-5S30.8,8.5,28,8.5L28,8.5z"/>
</g>
<path class="st2" d="M23,27.5H5c-0.5,0-1-0.4-1-1v-4c0-0.5,0.4-1,1-1h18c0.5,0,1,0.4,1,1v4C24,27.1,23.6,27.5,23,27.5z"/>
</svg>
