<?xml version="1.0" encoding="utf-8"?>
<!-- Generator: Adobe Illustrator 26.5.2, SVG Export Plug-In . SVG Version: 6.00 Build 0)  -->
<svg version="1.1" id="Layer_1" xmlns="http://www.w3.org/2000/svg" xmlns:xlink="http://www.w3.org/1999/xlink" x="0px" y="0px"
	 viewBox="0 0 36 36" style="enable-background:new 0 0 36 36;" xml:space="preserve">
<style type="text/css">
	.st0{fill-rule:evenodd;clip-rule:evenodd;fill:#808080;stroke:#464646;stroke-linecap:round;}
	.st1{fill-rule:evenodd;clip-rule:evenodd;fill:#C0C0C0;stroke:#464646;stroke-linecap:round;}
	.st2{fill-rule:evenodd;clip-rule:evenodd;fill:#FFFFFF;}
	.st3{fill:#464646;}
	.st4{fill-rule:evenodd;clip-rule:evenodd;fill:#202020;stroke:#A0A0A0;stroke-width:1.5;}
</style>
<path class="st0" d="M25.8,32.2V17.5c0-1.7,1.3-3.1,3-3.1s3,1.3,3,3.1v14.7c0,1.8-1.3,3.2-3,3.2C27,35.5,25.8,34,25.8,32.2z"/>
<path class="st1" d="M18.8,30.1V11.8c0-2.4,1.8-4.3,4-4.3s4,1.9,4,4.3v18.4c0,2.4-1.8,4.3-4,4.3C20.5,34.5,18.8,32.5,18.8,30.1z"/>
<g>
	<path class="st2" d="M21.3,6.4v21.3c0,3.2-2.4,5.8-5.5,5.8s-5.5-2.5-5.5-5.8V6.3c0-3.2,2.4-5.8,5.5-5.8C18.8,0.5,21.2,3,21.3,6.4z"
		/>
	<path class="st3" d="M15.8,33c-2.9,0-5-2.3-5-5.3V6.3c0-3,2.2-5.3,5-5.3s5,2.3,5,5.3v21.3C20.8,30.6,18.6,33,15.8,33 M15.8,34
		c3.3,0,6-2.8,6-6.3V6.3c0-3.5-2.6-6.3-6-6.3s-6,2.7-6,6.3v21.3C9.8,31.1,12.4,34,15.8,34L15.8,34z"/>
</g>
<circle class="st4" cx="10.2" cy="9" r="6"/>
<circle class="st4" cx="10.2" cy="17" r="6"/>
<circle class="st4" cx="10.2" cy="25" r="6"/>
</svg>
