<?xml version="1.0" encoding="utf-8"?>
<!-- Generator: Adobe Illustrator 26.5.2, SVG Export Plug-In . SVG Version: 6.00 Build 0)  -->
<svg version="1.1" id="Layer_1" xmlns="http://www.w3.org/2000/svg" xmlns:xlink="http://www.w3.org/1999/xlink" x="0px" y="0px"
	 viewBox="0 0 36 36" style="enable-background:new 0 0 36 36;" xml:space="preserve">
<style type="text/css">
	.st0{fill-rule:evenodd;clip-rule:evenodd;fill:#878787;stroke:#464646;stroke-linecap:round;}
	.st1{fill-rule:evenodd;clip-rule:evenodd;fill:#C3C3C3;stroke:#464646;stroke-linecap:round;}
	.st2{fill-rule:evenodd;clip-rule:evenodd;fill:#FFFFFF;}
	.st3{fill:#464646;}
	.st4{fill-rule:evenodd;clip-rule:evenodd;fill:#FFFFFF;stroke:#464646;}
</style>
<path class="st0" d="M7.2,35.5c-1.7,0-3-1.4-3-3.2V17.6c0-1.8,1.3-3.1,3-3.1s3,1.4,3,3.1v14.7C10.2,34.1,9,35.5,7.2,35.5z"/>
<path class="st1" d="M13.2,34.5c-2.2,0-4-1.9-4-4.3V11.8c0-2.4,1.8-4.3,4-4.3s4,1.9,4,4.3v18.4C17.2,32.6,15.5,34.5,13.2,34.5z"/>
<g>
	<path class="st2" d="M20.2,33.5c-3.1,0-5.5-2.6-5.5-5.8V6.3c0-3.3,2.4-5.8,5.5-5.8s5.5,2.6,5.5,5.8v21.3
		C25.8,30.9,23.3,33.5,20.2,33.5z"/>
	<path class="st3" d="M20.2,1c2.8,0,5,2.3,5,5.3v21.3c0,3-2.2,5.3-5,5.3s-5-2.3-5-5.3V6.3C15.2,3.3,17.5,1,20.2,1 M20.2,0
		c-3.4,0-6,2.8-6,6.3v21.3c0,3.6,2.6,6.3,6,6.3s6-2.8,6-6.3V6.3C26.2,2.8,23.6,0,20.2,0L20.2,0z"/>
</g>
<circle class="st4" cx="25.8" cy="9" r="6"/>
<circle class="st4" cx="25.8" cy="17" r="6"/>
<circle class="st4" cx="25.8" cy="25" r="6"/>
</svg>
