<?xml version="1.0" encoding="utf-8"?>
<!-- Generator: Adobe Illustrator 26.5.2, SVG Export Plug-In . SVG Version: 6.00 Build 0)  -->
<svg version="1.1" id="Layer_1" xmlns="http://www.w3.org/2000/svg" xmlns:xlink="http://www.w3.org/1999/xlink" x="0px" y="0px"
	 viewBox="0 0 36 36" style="enable-background:new 0 0 36 36;" xml:space="preserve">
<style type="text/css">
	.st0{fill-rule:evenodd;clip-rule:evenodd;fill:#878787;stroke:#FFFFFF;stroke-width:2;stroke-linecap:round;}
	.st1{fill-rule:evenodd;clip-rule:evenodd;fill:#FFFFFF;}
	.st2{fill:#464646;}
</style>
<path class="st0" d="M25.5,33h-10c-2.8,0-5-2.2-5-5V8c0-2.8,2.2-5,5-5h10c2.8,0,5,2.2,5,5v20C30.5,30.8,28.3,33,25.5,33z"/>
<g>
	<circle class="st1" cx="12.8" cy="18" r="9.5"/>
	<path class="st2" d="M12.8,9c5,0,9,4,9,9s-4,9-9,9s-9-4-9-9S7.8,9,12.8,9 M12.8,8c-5.5,0-10,4.5-10,10s4.5,10,10,10s10-4.5,10-10
		S18.3,8,12.8,8L12.8,8z"/>
</g>
</svg>
